<?xml version="1.0" encoding="UTF-8" standalone="no"?>
<!-- Created with Inkscape (http://www.inkscape.org/) -->

<svg
   width="210mm"
   height="297mm"
   viewBox="0 0 210 297"
   version="1.1"
   id="svg5"
   xml:space="preserve"
   inkscape:version="1.2 (dc2aedaf03, 2022-05-15)"
   sodipodi:docname="logo_rework.svg"
   xmlns:inkscape="http://www.inkscape.org/namespaces/inkscape"
   xmlns:sodipodi="http://sodipodi.sourceforge.net/DTD/sodipodi-0.dtd"
   xmlns="http://www.w3.org/2000/svg"
   xmlns:svg="http://www.w3.org/2000/svg"><sodipodi:namedview
     id="namedview7"
     pagecolor="#505050"
     bordercolor="#eeeeee"
     borderopacity="1"
     inkscape:showpageshadow="0"
     inkscape:pageopacity="0"
     inkscape:pagecheckerboard="0"
     inkscape:deskcolor="#505050"
     inkscape:document-units="mm"
     showgrid="false"
     inkscape:zoom="0.33071229"
     inkscape:cx="538.23219"
     inkscape:cy="335.63917"
     inkscape:window-width="1366"
     inkscape:window-height="705"
     inkscape:window-x="-8"
     inkscape:window-y="-8"
     inkscape:window-maximized="1"
     inkscape:current-layer="g181" /><defs
     id="defs2" /><g
     inkscape:label="Capa 1"
     inkscape:groupmode="layer"
     id="layer1"><g
       id="g181"
       transform="matrix(0.96681221,0,0,0.96681221,5.8294454,10.195029)"><path
         style="fill:#ffffff;stroke-width:0.264583;fill-opacity:0"
         d="M -7.2163072,148.21714 V 23.333811 H 101.26286 209.74202 V 148.21714 273.10047 H 101.26286 -7.2163072 Z M 134.86494,260.85432 c 1.38245,-0.36522 3.94229,-1.02573 5.68854,-1.46781 4.23421,-1.07193 8.16115,-2.46501 11.07796,-3.92992 7.27937,-3.65592 15.02753,-10.53685 24.03699,-21.3466 3.67304,-4.40699 3.92779,-4.78308 3.76366,-5.55625 -0.38512,-1.81424 -1.29306,-2.08863 -4.47176,-1.35144 -2.24589,0.52085 -12.57875,1.81792 -19.19331,2.4093 -6.32845,0.5658 -22.39275,0.6549 -27.64895,0.15336 -8.14827,-0.77751 -15.6296,-1.75131 -16.02813,-2.0863 -0.25092,-0.21091 -1.08752,-0.3511 -2.09518,-0.3511 -0.9226,0 -2.81823,-0.28591 -4.2125,-0.63535 -1.39426,-0.34944 -4.32096,-1.01284 -6.503777,-1.47421 -8.084481,-1.70878 -13.27227,-3.28556 -19.446875,-5.91068 L 75.99515,217.67625 78.3764,217.476 c 29.65485,-2.49372 52.86715,-5.88026 72.23125,-10.53813 1.30969,-0.31504 2.98964,-0.60855 3.73322,-0.65226 2.60284,-0.15299 20.485,-4.88115 22.8574,-6.04364 0.36381,-0.17827 4.59052,-1.43371 9.39271,-2.78987 4.80219,-1.35616 8.98657,-2.56257 9.29862,-2.68091 0.62593,-0.23737 0.89673,-1.22832 2.58821,-9.47137 1.35976,-6.62649 1.83242,-10.9034 1.67122,-15.12226 -0.13587,-3.55611 -0.87071,-9.8275 -1.24009,-10.58334 -0.10667,-0.21828 -0.14185,-0.83285 -0.0782,-1.36572 0.1865,-1.56063 -0.26491,-1.65074 -5.15824,-1.02971 -16.5262,2.09739 -23.6084,2.1951 -48.75342,0.67258 -14.15544,-0.8571 -15.40454,-0.95191 -15.89666,-1.20656 -0.23019,-0.11913 -5.52848,-0.82098 -11.77396,-1.55969 -14.06306,-1.66335 -28.340631,-3.47096 -35.829382,-4.53616 -5.65006,-0.80366 -8.667326,-0.94441 -13.626041,-0.63559 -1.164167,0.0725 2.824427,-0.50751 8.863541,-1.28892 31.892492,-4.12657 49.090322,-7.42741 71.241822,-13.67371 22.09653,-6.23079 24.49072,-6.94029 24.38248,-7.22556 -0.0704,-0.1854 3.74041,-1.58635 10.09522,-3.7113 8.07376,-2.69974 10.28988,-3.53808 10.59869,-4.00938 0.35741,-0.54547 0.31081,-0.80212 -0.55061,-3.03263 -0.51759,-1.3402 -1.38696,-3.28605 -1.93194,-4.3241 -2.83562,-5.40115 -9.04809,-11.71227 -14.85164,-15.087475 l -1.68994,-0.982826 -8.7611,0.01696 c -5.10248,0.0099 -11.63384,-0.157048 -15.64027,-0.399748 -3.78355,-0.229198 -10.80823,-0.513183 -15.61042,-0.631076 -8.65222,-0.212416 -8.77316,-0.223153 -13.36146,-1.186408 -2.54661,-0.534627 -6.93694,-1.562137 -9.75628,-2.283349 -2.81935,-0.721214 -5.2006,-1.320204 -5.29167,-1.331089 -0.0911,-0.01087 2.33472,-0.667809 5.39066,-1.459831 8.76657,-2.27208 15.33916,-4.323918 26.06146,-8.135895 0.65484,-0.232809 1.51011,-0.486553 1.90059,-0.563877 1.32467,-0.262308 1.33541,-2.376331 0.0136,-2.677303 -0.39796,-0.09062 -2.44998,-0.742516 -4.56003,-1.448668 -6.22084,-2.081874 -11.33016,-2.922251 -20.90208,-3.437974 -5.66725,-0.305343 -14.346138,-0.181586 -19.707634,0.281022 -1.453102,0.125378 -2.679885,0.190079 -2.726187,0.14378 -0.138623,-0.138626 1.509969,-9.524812 2.372095,-13.505421 1.507001,-6.958105 3.336084,-11.235684 6.842206,-16.001489 1.01334,-1.377404 1.84244,-2.633816 1.84244,-2.792016 0,-0.651655 -0.76269,-1.248608 -1.86776,-1.461884 -0.646226,-0.124719 -3.113904,-0.231948 -5.483738,-0.238285 -3.504345,-0.0094 -4.428495,0.06691 -4.94996,0.408588 -1.256305,0.823163 -3.446253,7.405739 -4.238204,12.739248 -0.504785,3.399554 -0.8739,12.55646 -0.717399,17.797054 l 0.114575,3.836622 -3.00428,0.464183 C 75.430367,75.73173 68.61229,77.591547 62.104495,80.13305 55.344791,82.772935 40.178128,90.777748 38.694162,92.488792 c -0.293952,0.338934 -2.402266,1.850234 -4.685141,3.358449 -4.311766,2.848628 -5.000752,3.549864 -4.237643,4.312979 0.399515,0.39951 0.398589,0.43192 -0.01233,0.43192 -0.244345,0 -0.579763,0.25319 -0.745376,0.56264 -0.484502,0.9053 0.06232,1.75609 1.262507,1.96431 0.5524,0.0958 3.305828,0.69918 6.11873,1.34076 16.539842,3.77251 25.1963,5.37922 41.055424,7.62024 5.637975,0.7967 24.664647,3.20902 29.633337,3.75711 l 1.71979,0.1897 -3.30729,0.74311 c -17.852407,4.01123 -42.468078,7.8811 -50.138545,7.88235 -1.164166,1.9e-4 -4.319322,0.11665 -7.011458,0.25879 -2.692135,0.14214 -8.189116,0.34062 -12.215513,0.44105 -6.647109,0.16582 -7.331816,0.22504 -7.441274,0.64361 -0.109709,0.41953 -0.819483,0.47798 -7.89282,0.65 -11.1784831,0.27184 -11.122429,0.26758 -11.6220475,0.88458 -0.7215484,0.89107 -3.6206485,8.4914 -4.3585103,11.42633 -1.0034101,3.99119 -1.438448,7.74747 -1.4402229,12.43542 -0.00161,4.29731 0.1159169,5.29167 0.6255324,5.29167 0.1694053,0 0.4327846,0.33057 0.5852875,0.73459 0.2514544,0.66618 0.6572731,0.85472 4.3574855,2.02449 3.9443303,1.24694 10.1532653,3.0882 22.3364583,6.62389 22.400788,6.50094 44.804003,10.80192 68.453276,13.14171 1.851181,0.18315 3.336621,0.36215 3.300991,0.39778 -0.12386,0.12387 -14.377063,1.93597 -20.425102,2.59677 -16.989943,1.85633 -45.121149,3.64363 -67.39939,4.28219 -5.6766985,0.16271 -6.3239198,0.22784 -6.730703,0.67733 -0.4254661,0.47014 -0.395111,0.75341 0.55548,5.18376 1.724121,8.0355 3.636503,13.93887 6.168954,19.04309 1.901269,3.83205 4.859287,9.05898 5.126649,9.05898 0.128818,0 0.234214,0.28915 0.234214,0.64256 0,0.9152 0.519801,1.32595 2.705129,2.1376 1.058794,0.39325 3.115705,1.24609 4.570913,1.89521 13.096824,5.84205 18.588654,7.95311 35.697559,13.72215 l 12.678812,4.27522 -5.402771,0.18986 c -21.819708,0.76676 -23.055222,0.83813 -23.432137,1.35359 -0.619363,0.84703 -0.407008,1.37789 1.26705,3.16747 3.669631,3.92284 9.800746,6.89041 20.51177,9.92805 9.678527,2.74482 13.282787,3.04759 20.592216,1.72984 6.913816,-1.24642 10.197446,-1.10817 24.606247,1.03603 3.34698,0.49807 6.50214,0.95895 7.01146,1.02418 0.50932,0.0652 3.18823,0.0848 5.95313,0.0434 4.37135,-0.0654 5.35494,-0.16182 7.54062,-0.73924 z"
         id="path197" /><path
         style="fill:#eaea61;stroke-width:0.264583"
         d="m 63.162858,238.75899 c -16.959635,-5.77442 -22.45556,-7.896 -35.321874,-13.63523 -1.455208,-0.64912 -3.512119,-1.50196 -4.570913,-1.89521 -2.163103,-0.8034 -2.705129,-1.22384 -2.705129,-2.09834 0,-0.58717 0.125545,-0.55811 4.696354,1.08733 6.383348,2.29792 13.196163,4.43392 17.558623,5.5051 12.486659,3.06602 23.256512,3.43024 49.976272,1.69013 4.583906,-0.29853 10.120309,-0.5785 12.303129,-0.62216 3.93818,-0.0788 7.15002,-0.35436 6.91137,-0.593 -0.0684,-0.0684 -0.75841,-0.27892 -1.53345,-0.46791 l -1.40917,-0.34363 1.30208,-0.0293 c 0.73714,-0.0166 1.48332,0.12308 1.71979,0.32185 0.39853,0.33499 7.87986,1.30879 16.02813,2.0863 5.2562,0.50154 21.3205,0.41244 27.64895,-0.15336 6.61456,-0.59138 16.94742,-1.88845 19.19331,-2.4093 2.30939,-0.53559 3.37945,-0.51374 3.91673,0.0799 0.62763,0.69352 0.54075,0.86106 -0.23722,0.45744 -0.80782,-0.4191 -0.25888,-0.53837 -10.04052,2.18158 -9.48963,2.63876 -14.24772,3.84005 -19.13361,4.83072 -2.08327,0.4224 -3.90816,0.84241 -4.0553,0.93335 -1.17081,0.7236 -15.75873,3.18423 -25.62672,4.32262 -10.12398,1.16791 -28.937092,2.50483 -39.422915,2.80152 l -4.894792,0.1385 z m 36.909372,-59.4866 c -19.120924,-2.0971 -30.073742,-3.83522 -44.979163,-7.13781 -8.143513,-1.80436 -16.163279,-3.84792 -23.8125,-6.0678 C 9.1328783,159.6393 5.0093352,158.33893 4.6508287,157.66905 4.5032402,157.39328 4.4438553,157.10628 4.518862,157.03128 c 0.075007,-0.075 2.1384812,0.34761 4.5854989,0.93914 19.5961831,4.73714 30.6922891,6.20003 47.0470391,6.20261 17.749636,0.003 38.332402,-2.02007 65.32015,-6.41962 6.34824,-1.03489 6.68742,-1.06347 9.525,-0.80268 4.64664,0.42707 24.19534,1.555 32.06772,1.85026 10.19157,0.38224 18.32793,-0.0437 30.60826,-1.6022 4.77234,-0.60568 5.3074,-0.51397 5.17088,0.88629 -0.0703,0.721 -0.19299,0.84579 -0.88569,0.90073 -0.44225,0.0351 -5.49626,1.322 -11.23113,2.85984 -12.15253,3.25876 -16.87566,4.45585 -23.41894,5.93558 -2.61938,0.59236 -4.95882,1.18876 -5.19877,1.32533 -0.56829,0.32346 -16.62732,3.87864 -24.43456,5.40937 -8.73075,1.7118 -19.90703,3.59279 -29.76563,5.00962 -0.3638,0.0523 -2.09021,-0.0616 -3.83646,-0.25316 z m 6.08542,-63.52099 c -0.43656,-0.059 -5.61578,-0.70309 -11.509375,-1.43129 -26.508652,-3.27538 -37.655047,-5.16208 -58.253341,-9.86026 -2.812902,-0.64158 -5.559404,-1.24362 -6.10334,-1.33787 -1.209892,-0.20964 -1.719831,-0.96479 -1.289417,-1.90944 0.276733,-0.60736 0.368998,-0.62793 2.077741,-0.46311 0.983482,0.0949 3.27643,0.57305 5.095441,1.06264 12.921863,3.47791 25.630015,4.82487 38.629166,4.09438 14.666145,-0.82416 27.419665,-3.0822 42.711105,-7.562091 7.9745,-2.336266 9.02915,-2.684809 8.59585,-2.840771 -0.20607,-0.07417 0.16112,-0.09424 0.81596,-0.0446 0.65484,0.04964 4.58391,0.150916 8.73125,0.225055 4.14734,0.07414 10.45766,0.315788 14.02292,0.536993 3.73574,0.231783 10.28272,0.396732 15.45193,0.389308 5.73979,-0.0083 9.06646,0.08394 9.23851,0.255992 0.18211,0.18211 0.14788,0.312174 -0.1061,0.403058 -0.45816,0.163957 -13.10103,4.113346 -21.93851,6.853166 -17.66746,5.47731 -41.67626,11.86644 -44.25051,11.77577 -0.61904,-0.0218 -1.48272,-0.0879 -1.91928,-0.14693 z"
         id="path195" /><path
         style="fill:#dcde20;stroke-width:0.264583"
         d="m 60.517025,230.3284 c -9.454644,-0.64886 -15.1038,-1.67513 -24.032882,-4.36601 -5.199745,-1.56701 -16.210412,-5.44456 -16.580659,-5.8391 -0.184624,-0.19674 -0.104664,-0.22393 0.264583,-0.09 0.562306,0.204 8.018733,0.21327 8.34702,0.0104 0.106629,-0.0659 2.617951,-0.12911 5.580718,-0.14046 5.853242,-0.0224 17.073867,-0.52814 26.288928,-1.18486 3.201459,-0.22815 8.02349,-0.56183 10.715625,-0.74151 l 4.894792,-0.3267 2.645833,1.1682 c 6.067227,2.67884 12.020449,4.54396 19.976042,6.25842 3.786935,0.8161 10.950375,2.45237 12.964585,2.96136 1.21,0.30578 -1.14227,0.58905 -5.95313,0.71692 -2.47385,0.0658 -8.307914,0.36451 -12.96458,0.66391 -14.902262,0.95814 -26.610622,1.28936 -32.146875,0.90942 z M 47.684734,164.09886 c -12.28358,-0.62304 -26.315101,-2.93255 -41.4943316,-6.82974 l -1.8068319,-0.4639 0.8807902,-0.31764 c 0.4844346,-0.1747 5.1670403,-0.73961 10.4057903,-1.25536 13.88396,-1.36684 28.828674,-2.91497 39.687499,-4.11123 5.23875,-0.57713 11.787187,-1.13917 14.552083,-1.24898 4.807223,-0.19093 5.293231,-0.16235 11.1125,0.65352 8.151442,1.14284 22.383937,2.94194 36.242267,4.58131 6.25429,0.73985 11.40018,1.37393 11.43532,1.40907 0.11181,0.11181 -13.51131,2.26413 -22.013,3.47783 -23.265922,3.32145 -44.8479,4.82303 -59.002086,4.10512 z M 3.6316093,156.40361 c 0,-0.15411 0.1190625,-0.20661 0.2645833,-0.11668 0.1455209,0.0899 0.2645834,0.21603 0.2645834,0.2802 0,0.0642 -0.1190625,0.11668 -0.2645834,0.11668 -0.1455208,0 -0.2645833,-0.12609 -0.2645833,-0.2802 z M 61.972233,105.97205 c -8.025206,-0.38563 -16.408413,-1.71783 -25.118239,-3.99162 -4.305983,-1.12412 -4.215024,-1.21803 1.438031,-1.48463 18.013032,-0.849501 42.320054,-4.311354 64.445045,-9.178393 l 2.66484,-0.586209 5.27266,1.346523 c 2.89997,0.740587 7.35626,1.768261 9.90287,2.283717 6.64231,1.344456 6.21393,1.171413 4.36563,1.763485 -23.05086,7.383917 -44.483624,10.735487 -62.970837,9.847127 z"
         id="path193" /><path
         style="fill:#8ec14a;stroke-width:0.264583"
         d="m 83.403483,256.86144 c -5.842428,-2.57054 -8.986917,-4.31021 -15.08125,-8.34361 l -4.233333,-2.80173 5.027083,-0.13514 5.027084,-0.13513 0.525925,0.6643 c 1.633889,2.06377 4.549648,5.13202 6.650559,6.99839 1.320321,1.17291 3.162776,2.81078 4.094342,3.6397 0.931566,0.82891 1.574694,1.5078 1.429173,1.50863 -0.14552,8e-4 -1.693333,-0.6271 -3.439583,-1.39541 z M 35.807379,218.01663 c -3.340989,-7.33132 -6.36973,-16.76846 -8.206846,-25.57141 -0.522597,-2.50413 -0.950174,-4.66924 -0.950174,-4.81136 0,-0.15106 1.108911,-0.25839 2.66959,-0.25839 2.966072,0 15.010929,-0.44767 20.746035,-0.77107 2.037291,-0.11488 3.745044,-0.17571 3.795008,-0.13518 0.04996,0.0405 0.318678,2.00586 0.597141,4.36739 1.001887,8.49656 2.725108,17.27862 4.747525,24.19483 0.58485,2.00006 1.029869,3.66613 0.98893,3.70237 -0.08371,0.0741 -13.604123,0.8287 -19.584291,1.09302 l -3.899435,0.17236 z M 24.937036,152.7812 c 0.953778,-11.10648 2.152534,-19.80026 3.593526,-26.06145 l 0.289243,-1.25678 h 2.292051 c 3.082414,0 17.685837,-0.50809 21.414366,-0.74506 l 2.989406,-0.19 -0.143026,0.93055 c -0.453221,2.94871 -1.597647,16.30855 -1.886281,22.02013 l -0.183293,3.62708 -1.089355,0.14257 c -0.599147,0.0784 -2.875294,0.32633 -5.058106,0.55093 -2.182813,0.22461 -6.35,0.69727 -9.260417,1.05037 -5.524669,0.67026 -12.448942,1.45302 -12.853471,1.45302 -0.12941,0 -0.176498,-0.68461 -0.104643,-1.52136 z M 36.439942,98.697022 c 0,-0.05359 0.565547,-1.57076 1.256771,-3.371493 l 1.256771,-3.274057 3.439583,-2.088679 c 4.198517,-2.549538 10.133293,-5.498952 15.065089,-7.486917 3.654975,-1.47329 4.806172,-1.699599 4.749099,-0.933606 -0.01625,0.218212 -0.671103,3.931015 -1.455208,8.250674 l -1.425647,7.853928 -1.190625,0.149471 c -2.602508,0.326718 -21.695833,1.11936 -21.695833,0.900679 z"
         id="path191" /><path
         style="fill:#6dac3f;stroke-width:0.264583"
         d="m 121.37119,261.55015 c -0.50932,-0.0652 -3.66448,-0.52611 -7.01146,-1.02418 -14.408801,-2.1442 -17.692431,-2.28245 -24.606247,-1.03603 -7.309429,1.31775 -10.913689,1.01498 -20.592216,-1.72984 -10.711024,-3.03764 -16.842139,-6.00521 -20.51177,-9.92805 -1.673638,-1.78912 -1.886368,-2.3205 -1.267701,-3.16658 0.328353,-0.44905 1.135465,-0.51912 9.591146,-0.83266 36.709254,-1.36119 55.582368,-2.65845 71.145128,-4.8902 4.06452,-0.58287 13.11048,-2.18424 15.59905,-2.76145 0.86687,-0.20106 1.61071,-0.331 1.65296,-0.28874 0.0762,0.0763 -2.43052,6.63843 -4.23338,11.08208 l -0.93995,2.31674 2.29504,-1.58904 c 3.13151,-2.16822 6.6379,-4.97992 10.24763,-8.21736 3.29072,-2.95133 6.81194,-6.69726 6.54573,-6.96346 -0.0917,-0.0917 0.002,-0.16676 0.20809,-0.16678 0.20615,-3e-5 4.24436,-1.0779 8.97378,-2.39528 4.72943,-1.31738 8.94589,-2.4076 9.3699,-2.42271 0.78758,-0.0281 1.7426,0.8086 1.7426,1.52663 0,0.54914 -7.46006,9.36828 -11.25719,13.30804 -3.81384,3.95709 -8.43228,7.93977 -11.95042,10.30536 -4.50001,3.0258 -9.28721,5.05644 -15.81843,6.70987 -1.74625,0.44208 -4.30609,1.10259 -5.68854,1.46781 -2.18568,0.57742 -3.16927,0.67384 -7.54062,0.73924 -2.7649,0.0414 -5.44381,0.0218 -5.95313,-0.0434 z m -35.957297,-4.80193 c -0.931566,-0.82892 -2.774021,-2.46679 -4.094342,-3.6397 -2.100911,-1.86637 -5.01667,-4.93462 -6.650559,-6.99839 l -0.525925,-0.6643 -5.027084,0.13513 -5.027083,0.13514 4.233333,2.80173 c 4.26302,2.82139 7.017036,4.46333 10.186458,6.07316 2.233994,1.1347 7.993068,3.66782 8.334375,3.66586 0.145521,-7.9e-4 -0.497607,-0.67972 -1.429173,-1.50863 z m 71.891017,-23.78057 c 0.191,-0.0764 0.4192,-0.067 0.50712,0.0209 0.0879,0.0879 -0.0683,0.15046 -0.34726,0.13897 -0.30823,-0.0127 -0.37092,-0.0754 -0.15986,-0.15985 z m 1.05834,-0.26458 c 0.19099,-0.0764 0.4192,-0.067 0.50712,0.0209 0.0879,0.0879 -0.0684,0.15045 -0.34727,0.13897 -0.30823,-0.0127 -0.37092,-0.0754 -0.15985,-0.15985 z M 20.448097,220.10195 c -0.441161,-0.14787 -1.105794,-1.03881 -2.147683,-2.87893 -4.823384,-8.5188 -7.022194,-14.42246 -9.2652942,-24.8767 -0.9505911,-4.43035 -0.9809462,-4.71362 -0.55548,-5.18376 0.4067831,-0.44949 1.0540044,-0.51462 6.7307022,-0.67733 8.763828,-0.2512 27.446361,-1.13405 37.369183,-1.76589 35.254684,-2.24488 66.641255,-6.6726 98.538245,-13.90086 3.48203,-0.78907 6.44523,-1.43467 6.5849,-1.43467 0.37892,0 0.026,13.73593 -0.46491,18.09504 -0.67087,5.95702 -2.30203,16.02695 -2.94672,18.19152 -0.0941,0.31604 -1.08895,0.66007 -3.62634,1.25408 -24.51458,5.73891 -53.748052,9.61125 -87.282071,11.56159 l -3.087518,0.17957 -0.563478,-1.82059 c -2.289487,-7.39731 -4.176117,-16.70199 -5.2735,-26.00841 -0.278463,-2.36153 -0.547177,-4.32685 -0.597141,-4.36739 -0.04996,-0.0405 -1.757717,0.0203 -3.795008,0.13518 -5.735106,0.3234 -17.779963,0.77107 -20.746035,0.77107 -1.522156,0 -2.66959,0.10877 -2.66959,0.25305 0,0.42827 1.588873,7.96196 2.130861,10.10353 1.472118,5.81682 4.194358,13.82326 6.456157,18.98835 0.663363,1.51487 1.136007,2.82455 1.050324,2.91042 -0.258408,0.25894 -15.151105,0.70191 -15.839604,0.47113 z M 178.69785,196.35068 c 0.9894,-3.86622 1.98498,-9.41828 2.51087,-14.00229 0.46692,-4.06996 0.48149,-18.46207 0.019,-18.74791 -0.18239,-0.11273 3.29061,-1.15714 7.94356,-2.38882 4.5472,-1.20369 8.40279,-2.22964 8.56799,-2.2799 0.6177,-0.1879 1.41935,0.67753 1.42406,1.53736 0.003,0.46469 0.18579,1.91646 0.40724,3.22615 1.06936,6.32457 0.75096,12.61967 -1.09275,21.60455 -1.69148,8.24305 -1.96227,9.234 -2.5882,9.47137 -0.71479,0.27107 -17.70987,5.05746 -17.92127,5.04724 -0.0858,-0.004 0.2425,-1.56463 0.72952,-3.46775 z M 4.0707912,156.02746 c -0.5382313,-0.26796 -0.5763321,-0.49955 -0.6549986,-3.98127 -0.1036433,-4.58717 0.3073818,-8.55577 1.3139052,-12.68624 0.7814194,-3.2067 3.6547597,-10.85385 4.4448394,-11.82956 0.4994587,-0.61681 0.4475974,-0.61285 11.5888428,-0.88374 4.256484,-0.10349 7.739062,-0.12054 7.739062,-0.0379 0,0.0827 -0.235278,1.3767 -0.522838,2.87568 -1.362165,7.10059 -2.360279,14.51042 -2.891099,21.46304 -0.131315,1.71997 -0.301987,3.19045 -0.379267,3.26773 -0.07728,0.0773 -4.623967,0.58066 -10.103743,1.11863 -7.469548,0.73331 -10.1062635,0.90691 -10.5347038,0.69362 z m 2.7078063,-4.66212 c 0.3326477,-2.17299 1.5108717,-6.92395 4.0943495,-16.50966 1.216449,-4.5135 1.36471,-5.30574 1.0082,-5.38741 -0.632481,-0.14488 -1.165701,0.69047 -2.3636196,3.70289 -2.3330439,5.86694 -3.2285019,10.08377 -3.4338527,16.17046 -0.155349,4.60463 0.1594805,5.52145 0.6949228,2.02372 z M 35.84463,153.069 c 0.181901,-0.0734 0.479557,-0.0734 0.661458,0 0.181901,0.0734 0.03307,0.13345 -0.330729,0.13345 -0.363802,0 -0.51263,-0.0601 -0.330729,-0.13345 z m 2.248958,-0.27174 c 0.254661,-0.0666 0.67138,-0.0666 0.926042,0 0.254661,0.0666 0.0463,0.121 -0.463021,0.121 -0.509323,0 -0.717683,-0.0545 -0.463021,-0.121 z m 2.38125,-0.26459 c 0.254661,-0.0666 0.67138,-0.0666 0.926042,0 0.254661,0.0666 0.0463,0.121 -0.463021,0.121 -0.509323,0 -0.717683,-0.0545 -0.463021,-0.121 z m 2.248958,-0.26892 c 0.327422,-0.0631 0.863203,-0.0631 1.190625,0 0.327422,0.0631 0.05953,0.11466 -0.595312,0.11466 -0.654844,0 -0.922735,-0.0516 -0.595313,-0.11466 z m 2.38125,-0.26458 c 0.327422,-0.0631 0.863203,-0.0631 1.190625,0 0.327422,0.0631 0.05953,0.11466 -0.595312,0.11466 -0.654844,0 -0.922735,-0.0516 -0.595313,-0.11466 z m 2.51718,-0.26772 c 0.402182,-0.0608 0.997495,-0.0592 1.322916,0.004 0.325422,0.0628 -0.0036,0.11256 -0.731242,0.11057 -0.727604,-0.002 -0.993857,-0.0534 -0.591674,-0.11419 z M 50.132129,151.47 c 0.327422,-0.0631 0.863204,-0.0631 1.190625,0 0.327422,0.0631 0.05953,0.11466 -0.595312,0.11466 -0.654844,0 -0.922734,-0.0516 -0.595313,-0.11466 z m 2.610861,-0.26 c 0.527005,-0.10353 0.571238,-0.3257 0.743482,-3.73428 0.287152,-5.68247 1.46268,-19.43203 1.870871,-21.88263 l 0.132575,-0.79592 4.828656,-0.47185 c 19.882509,-1.94289 46.592846,-7.22531 70.974496,-14.03642 2.32833,-0.65043 4.24395,-1.16352 4.25694,-1.1402 0.013,0.0233 0.97678,1.29256 2.14175,2.82053 2.53389,3.32343 5.25777,7.37965 7.35137,10.94718 1.89742,3.23322 5.50199,10.67166 5.36724,11.07591 -0.18565,0.55695 -15.37476,4.58643 -25.5996,6.79125 -9.49914,2.04835 -20.44556,3.98654 -32.14687,5.69199 -13.468527,1.96301 -44.61823,5.65723 -39.92091,4.73444 z m 116.73533,-29.13427 c -2.80812,-5.71558 -5.76097,-10.67404 -9.21658,-15.47659 -1.23517,-1.71662 -2.38869,-3.32396 -2.56338,-3.57188 -0.28823,-0.40902 0.48971,-0.70391 8.40417,-3.185719 l 8.72181,-2.734977 1.25311,0.727458 c 3.76675,2.186678 9.00358,6.968998 11.85797,10.828818 1.86477,2.5216 3.20984,5.0174 4.48879,8.32903 0.86031,2.22763 0.90766,2.48771 0.55178,3.03085 -0.30685,0.46832 -2.50866,1.30382 -10.3986,3.94587 -5.50513,1.84347 -10.12839,3.34435 -10.27391,3.33531 -0.14552,-0.009 -1.41684,-2.36173 -2.82516,-5.22817 z"
         id="path189" /><path
         style="fill:#6eaa3d;stroke-width:0.264583"
         d="m 3.7387624,156.09305 c -0.4305017,-0.50457 -0.4351467,-0.53733 -0.031842,-0.22457 0.2597026,0.20139 0.8503097,0.35542 1.3124606,0.34228 0.6107798,-0.0174 0.734736,0.0429 0.4538551,0.22053 -0.6319141,0.39969 -1.1992694,0.28906 -1.7344737,-0.33824 z m 2.3449123,-6.75143 c 0.2053508,-6.08669 1.1008088,-10.30352 3.4338527,-16.17046 1.1979186,-3.01242 1.7311386,-3.84777 2.3636196,-3.70289 0.35651,0.0817 0.208249,0.87391 -1.0082,5.38741 -2.5834778,9.58571 -3.7617018,14.33667 -4.0943495,16.50966 -0.5354423,3.49773 -0.8502718,2.58091 -0.6949228,-2.02372 z M 30.079367,100.3722 c -1.146384,-0.928286 -0.619731,-1.533668 4.011591,-4.611304 2.356234,-1.565778 4.322265,-2.808666 4.368959,-2.761972 0.04669,0.04669 -0.386046,1.320516 -0.961642,2.830718 -0.575595,1.510202 -0.997656,2.794704 -0.93791,2.854452 0.272338,0.272336 22.574326,-0.76427 22.74417,-1.057161 0.07042,-0.121433 2.872142,-15.640012 2.903924,-16.084663 0.05377,-0.752211 -1.080122,-0.55 -4.342207,0.774372 -1.799611,0.73062 -3.310369,1.290055 -3.357237,1.243184 -0.138131,-0.138131 6.970845,-3.234915 9.844468,-4.288409 5.444596,-1.996035 12.420063,-3.781165 18.290299,-4.680772 l 2.4153,-0.370142 0.173135,1.689896 c 0.30911,3.017084 1.791504,5.896327 3.035758,5.896327 0.945586,0 1.353714,-0.923094 1.967521,-4.450085 0.332242,-1.90909 0.677045,-3.544041 0.766225,-3.633221 0.62357,-0.623573 15.184129,-1.054701 22.431969,-0.6642 9.63755,0.519258 14.73529,1.363401 20.93352,3.46641 2.12734,0.721791 4.05361,1.312346 4.28058,1.312346 0.60916,0 1.24423,0.742762 1.24423,1.455209 0,0.792371 -0.65537,1.455208 -1.43882,1.455208 -0.334,0 -1.19652,0.24488 -1.91671,0.544179 l -1.30944,0.544176 -2.89304,-1.759931 c -5.09178,-3.097517 -6.73274,-3.813284 -10.00817,-4.365464 -5.36561,-0.904544 -10.01983,-1.344551 -15.88235,-1.501502 l -5.79957,-0.155266 0.90478,1.269979 c 1.37016,1.923198 5.7613,6.433939 9.66608,9.929357 l 3.49153,3.125489 -5.99412,1.468858 c -23.179994,5.680257 -47.830715,9.378484 -71.573994,10.737892 -6.210382,0.35557 -6.361131,0.351 -7.058829,-0.21396 z"
         id="path187" /><path
         style="fill:#518137;stroke-width:0.264583"
         d="m 141.74134,245.45838 c 0.84968,-2.10818 2.04805,-5.17482 2.66304,-6.81476 0.61499,-1.63993 1.13793,-3.00825 1.16209,-3.04071 0.0242,-0.0325 2.98142,-0.66027 6.57167,-1.39514 3.59025,-0.73488 6.73869,-1.41644 6.99653,-1.5146 0.78078,-0.29724 -3.17377,3.90244 -6.39525,6.79167 -3.60978,3.23748 -7.11613,6.04915 -10.24778,8.21745 l -2.29517,1.58915 z m 12.52154,-39.60999 c 0.0824,-0.33745 0.50994,-2.51854 0.95002,-4.84688 1.74268,-9.2199 2.40937,-15.48775 2.62979,-24.72401 l 0.17329,-7.26151 4.36563,-0.99782 c 2.40109,-0.5488 7.61813,-1.78752 11.59341,-2.75271 3.97528,-0.96519 7.30637,-1.67631 7.40242,-1.58026 0.32069,0.32069 0.19459,15.5146 -0.1538,18.5309 -0.74694,6.46693 -2.82921,16.71484 -3.59801,17.70767 -0.54319,0.70146 -17.06659,5.36899 -22.48718,6.35217 -0.97525,0.17689 -1.01811,0.15596 -0.87557,-0.42755 z m -3.78752,-71.95906 c 0,-0.49049 -3.87982,-8.3276 -5.43223,-10.97292 -2.11907,-3.61093 -4.84505,-7.66376 -7.33246,-10.90151 -1.15457,-1.50286 -2.05883,-2.76425 -2.00946,-2.80311 0.0494,-0.0388 2.35196,-0.74369 5.11686,-1.5663 2.76489,-0.82262 7.60582,-2.31103 10.75762,-3.30758 l 5.73053,-1.8119 1.56851,2.14192 c 5.17234,7.06321 8.76692,13.13396 12.33322,20.82905 l 1.18066,2.54755 -8.50923,2.41099 c -11.53438,3.26814 -13.40402,3.7471 -13.40402,3.43381 z M 110.65557,84.756523 c -4.08989,-3.738197 -7.71714,-7.497468 -9.10687,-9.438338 l -0.90478,-1.2636 5.79957,0.155266 c 5.86294,0.156964 10.51676,0.596958 15.88356,1.501711 2.19858,0.370642 3.43088,0.742757 4.88535,1.475216 2.5237,1.270913 7.65254,4.351759 7.65254,4.596805 0,0.34276 -19.12868,6.386621 -20.14781,6.365864 -0.19657,-0.004 -2.02427,-1.530818 -4.06156,-3.392924 z"
         id="path185" /><path
         style="fill:#61360f;stroke-width:0.264583"
         d="m 87.217425,81.211414 c -0.766111,-0.796923 -1.508977,-2.489219 -1.848699,-4.211442 -0.814655,-4.129921 -0.727424,-18.470028 0.148222,-24.367219 0.791951,-5.333509 2.981899,-11.916085 4.238204,-12.739248 0.521465,-0.341677 1.445615,-0.41796 4.94996,-0.408588 2.369834,0.0063 4.837512,0.113566 5.483738,0.238285 1.10507,0.213276 1.86776,0.810229 1.86776,1.461884 0,0.1582 -0.8291,1.414612 -1.84244,2.792027 -3.37767,4.591209 -5.28871,8.959926 -6.716404,15.353971 -0.375378,1.681157 -1.3974,7.204022 -2.27116,12.273031 -1.624322,9.423305 -1.850342,10.202611 -2.959031,10.202611 -0.262818,0 -0.735385,-0.267891 -1.05015,-0.595312 z"
         id="path183" /></g></g></svg>
